<svg width="276" height="320" viewBox="0 0 276 320" fill="none" xmlns="http://www.w3.org/2000/svg">
<path d="M0 0H276V320H0V0Z" fill="white"/>
<g clip-path="url(#clip0_2_375)">
<path d="M0 0H276V320H0V0Z" fill="#D9DEE3"/>
<path d="M22 0H0V22H22V0Z" fill="#EAEEF2"/>
<path d="M276 192H254V214H276V192Z" fill="#EAEEF2"/>
<path d="M172.613 145.493C172.613 145.493 174.349 158.11 174.349 161.218C174.349 164.326 180.161 174.81 174.349 178.312C168.537 181.814 162.725 172.676 162.725 172.676L172.613 145.493Z" fill="#E7F1FB"/>
<path d="M169.186 161.45C169.186 161.45 171.849 161.659 171.849 164.767C171.849 167.875 174.813 169.174 173.724 170.658C172.636 172.142 171.27 170.264 168.63 173.372C165.99 176.48 169.186 161.45 169.186 161.45Z" fill="#BFCFDD"/>
<path d="M169.927 155.976C169.927 155.976 172.427 151.059 173.33 162.586C173.33 162.586 170.737 157.275 168.931 157.924C167.125 158.574 169.927 155.976 169.927 155.976Z" fill="#BFCFDD"/>
<path d="M93.5359 147.812C93.5359 147.812 90.0394 159.084 89.4605 165.277C88.8816 171.47 90.0394 178.915 93.5359 179.077C97.0325 179.239 99.348 176.526 99.348 176.526L93.5359 147.812Z" fill="#9FB1BF"/>
<path d="M94.3229 153.356C94.3229 153.356 91.5443 158.806 91.359 162.309C91.359 162.309 94.2998 158.203 95.9207 159.154C97.5416 160.105 94.3229 153.356 94.3229 153.356Z" fill="#304D60"/>
<path d="M96.2915 161.45C96.2915 161.45 93.9065 161.218 93.8833 163.978C93.8601 166.738 91.1741 168.176 91.8688 169.707C92.5634 171.238 95.5042 169.197 96.7083 171.238C97.9124 173.279 99.3249 171.238 99.3249 171.238L96.2915 161.45Z" fill="#304D60"/>
<path d="M262.318 319.977C262.318 319.977 248.355 247.799 239.047 243.74C229.738 239.681 175.461 216.929 175.461 216.929C175.461 216.929 168.352 209.252 159.946 211.316C151.541 213.38 109.56 207.814 102.196 217.926C102.196 217.926 45.9738 233.86 35.5074 249.77C25.041 265.681 13 319.977 13 319.977H262.318Z" fill="#040F1F"/>
<path d="M106.595 191.509L110.208 210.968L111.504 224.652C111.504 224.652 126.509 253.899 165.781 233.721C165.781 233.721 174.048 215.073 163.721 212.221L165.017 187.357L106.595 191.509Z" fill="#E7F1FB"/>
<path d="M123.175 190.326L106.619 191.509L110.231 210.968L111.528 224.652C112.176 225.835 112.917 226.948 113.728 227.992C114.584 226.067 115.858 224.559 118.336 224.513C125.167 224.374 116.391 210.133 126.093 212.081C135.795 214.029 151.147 206.515 151.147 206.515L123.175 190.326Z" fill="#1573FF"/>
<path d="M127.968 207.791L109.073 191.323L106.595 191.509L110.208 210.968L111.018 219.619C115.232 216.395 111.597 205.889 114.792 207.164C117.988 208.44 127.968 207.791 127.968 207.791Z" fill="#040F1F"/>
<path d="M170.668 139.857C170.668 139.857 170.529 166.135 168.977 176.758C167.426 187.38 159.414 201.876 151.147 206.538C142.881 211.2 125.282 207.326 120.651 206.538C116.02 205.749 102.567 190.233 100.483 184.527C98.3985 178.822 95.5735 160.708 95.5735 149.065C95.5735 137.422 102.289 104.278 103.076 104.023C103.863 103.768 138.226 99.6165 139.268 99.8717C140.31 100.127 138.504 95.7201 149.619 103.235C160.734 110.749 170.691 121.349 170.691 121.349L170.668 139.857Z" fill="#E7F1FB"/>
<path d="M142.116 106.853C142.116 106.853 148.831 124.596 148.322 128.075C147.813 131.554 133.919 127.936 144.015 137.352L159.83 136.633C159.83 136.633 159.182 120.073 157.376 112.953C155.57 105.832 142.116 106.853 142.116 106.853Z" fill="white"/>
<path d="M124.819 159.525C124.819 159.525 112.385 162.077 108.008 161.45C103.632 160.824 103.215 174.207 108.008 179.101C112.801 183.994 100.992 176.109 100.992 176.109V158.76L101.988 153.797L103.747 153.356L126.394 153.843L124.819 159.525Z" fill="#BFCFDD"/>
<path d="M125.699 173.395C125.699 173.395 119.169 178.567 119.192 184.272C119.215 189.978 133.201 183.507 133.201 183.507C133.201 183.507 137.694 176.131 136.536 175.088C135.378 174.044 125.699 173.395 125.699 173.395Z" fill="#BFCFDD"/>
<path d="M168.375 135.009C168.375 135.009 168.745 161.427 165.735 167.039C162.725 172.652 152.583 171.701 153 189.375C153.324 202.664 152.12 205.656 151.494 206.329C159.645 201.481 167.472 187.218 169 176.757C170.552 166.135 170.69 139.857 170.69 139.857V136.424L168.375 135.009Z" fill="#BFCFDD"/>
<path d="M144.015 137.352C144.015 137.352 139.014 145.702 139.152 149.83C139.291 153.959 150.568 157.53 159.367 155.211C168.167 152.892 165.295 148.276 165.295 148.276C165.295 148.276 164.138 142.965 164.763 140.437L157.631 135.706L144.015 137.352Z" fill="#BFCFDD"/>
<path d="M151.147 206.515C149.642 198.42 120.651 206.515 118.637 196.356C116.622 186.197 114.469 183.391 105.276 175.876C96.0829 168.362 105.276 154.886 105.276 154.886C109.143 157.762 119.378 155.327 121.253 155.953C123.129 156.579 122.087 161.45 123.523 163.445C124.958 165.439 127.76 165.833 127.76 165.833C127.76 165.833 128.594 156.324 128.408 149.25C128.223 142.176 121.508 134.244 121.508 134.244C121.508 134.244 117.548 134.175 117.571 127.286C117.595 120.398 124.796 103.467 124.796 103.467L117.132 102.191C109.791 103.072 103.4 103.884 103.076 104C102.312 104.255 95.5735 137.398 95.5735 149.041C95.5735 160.685 98.4216 178.822 100.483 184.504C102.543 190.187 115.997 205.726 120.651 206.515C125.306 207.303 142.858 211.176 151.147 206.515Z" fill="#9FB1BF"/>
<path d="M113.866 134.36C112.269 129.791 112.616 123.482 114.885 115.62C116.576 109.775 118.752 105.206 118.775 105.16L119.401 105.461C119.308 105.647 110.81 123.575 114.515 134.151L113.866 134.36Z" fill="#304D60"/>
<path d="M141.445 208.741C139.431 204.752 121.3 205.749 118.984 203.43C116.669 201.111 109.676 187.287 103.4 181.953C97.1251 176.618 98.8386 163.978 99.6954 157.855C100.552 151.732 107.592 152.381 107.592 152.381L122.087 149.297C122.967 142.617 119.378 138.883 119.378 138.883L107.939 134.244C105.785 123.946 114.793 104.696 114.793 104.696L102.196 106.621C100.182 114.715 95.5273 139.323 95.5273 149.042C95.5273 160.685 98.3755 178.822 100.436 184.504C102.497 190.187 115.951 205.726 120.605 206.515C123.801 207.071 133.202 209.089 141.445 208.741Z" fill="#304D60"/>
<path d="M96.2916 161.45C96.2916 161.45 95.4812 137.909 98.1904 135.381L100.9 132.853C100.9 132.853 99.3713 112.071 111.366 108.384C123.361 104.696 130.562 109.752 141.029 111.097C151.495 112.443 152.653 118.079 161.568 117.128C161.568 117.128 161.961 133.641 168.352 134.986L169.904 155.953C169.904 155.953 170.992 150.572 174.164 149.923C174.164 149.923 175.322 113.417 172.034 112.837L168.746 112.257C168.746 112.257 171.27 108.569 166.616 103.119C161.961 97.6684 153.046 88.5534 145.289 88.1591C137.532 87.7648 122.411 87.9735 120.281 90.2929C120.281 90.2929 116.599 88.5534 110 92.0324C103.4 95.5346 91.3826 106.992 94.4855 113.185C94.4855 113.185 91.1974 117.267 91.9615 121.929C92.7256 126.59 92.5404 150.967 92.5404 150.967C92.5404 150.967 95.898 157.971 96.2916 161.45Z" fill="#040F1F"/>
<path d="M153.138 320L151.379 280.223H197.389V319.977H196.694V280.919H152.096L153.833 319.977L153.138 320Z" fill="#1573FF"/>
<path d="M143.621 135.195C143.621 135.195 157.77 133.061 160.294 135.195C162.818 137.329 166.685 140.437 164.739 140.437C162.794 140.437 160.294 137.723 157.168 138.303C154.042 138.883 146.516 139.857 144.756 139.091C142.996 138.326 143.621 135.195 143.621 135.195Z" fill="#040F1F"/>
<path d="M121.531 134.244C121.531 134.244 122.11 138.883 119.401 138.883C116.692 138.883 109.328 136.564 106.596 138.883C103.863 141.202 100.969 144.333 100.969 144.333C100.969 144.333 103.886 134.476 107.939 134.244C111.991 134.012 121.531 134.244 121.531 134.244Z" fill="#040F1F"/>
<path d="M104.558 150.016L103.979 149.622C106.734 145.656 110.023 143.499 113.727 143.197C120.558 142.64 126.37 148.555 126.602 148.787L126.093 149.274C126.046 149.204 120.281 143.359 113.751 143.893C110.3 144.194 107.198 146.235 104.558 150.016Z" fill="#9FB1BF"/>
<path d="M161.128 146.885C158.858 143.87 156.149 142.2 153.092 141.898C147.165 141.342 141.792 146.143 141.723 146.189L141.26 145.679C141.491 145.47 146.91 140.623 153.162 141.202C156.427 141.504 159.298 143.29 161.706 146.467L161.128 146.885Z" fill="#9FB1BF"/>
<path d="M143.529 149.83C143.529 149.83 148.994 141.944 160.363 149.83C160.363 149.83 150.36 156.301 143.529 149.83Z" fill="white"/>
<path d="M123.522 150.595C123.522 150.595 116.043 141.666 106.086 151.894C106.086 151.894 116.807 155.907 123.522 150.595Z" fill="white"/>
<path d="M155.292 149.505C155.292 148.462 154.875 147.488 154.134 146.745C152.49 146.282 150.777 146.189 149.086 146.467C147.419 147.766 147.118 150.178 148.415 151.848C148.623 152.103 148.855 152.358 149.133 152.544C150.753 152.776 152.398 152.706 153.995 152.335C154.806 151.639 155.292 150.596 155.292 149.505Z" fill="#1573FF"/>
<path d="M118.637 149.83C118.637 148.833 118.266 147.882 117.571 147.186C115.835 146.838 113.751 146.931 111.458 147.952C110.416 149.807 111.088 152.127 112.917 153.17C113.01 153.217 113.102 153.263 113.195 153.309C114.306 153.379 115.418 153.356 116.529 153.24C117.826 152.59 118.637 151.268 118.637 149.83Z" fill="#1573FF"/>
<path d="M114.816 151.384C115.673 151.384 116.367 150.689 116.367 149.83C116.367 148.972 115.673 148.276 114.816 148.276C113.959 148.276 113.264 148.972 113.264 149.83C113.264 150.689 113.959 151.384 114.816 151.384Z" fill="#040F1F"/>
<path d="M151.448 150.851C152.305 150.851 153 150.155 153 149.297C153 148.438 152.305 147.743 151.448 147.743C150.591 147.743 149.897 148.438 149.897 149.297C149.897 150.155 150.591 150.851 151.448 150.851Z" fill="#040F1F"/>
<path d="M106.341 152.126L105.808 151.663C105.994 151.454 110.254 146.676 115.765 146.583C118.66 146.537 121.369 147.813 123.777 150.364L123.268 150.851C120.999 148.439 118.475 147.233 115.789 147.279C110.602 147.372 106.387 152.08 106.341 152.126Z" fill="#040F1F"/>
<path d="M160.155 150.108C156.566 147.302 153.139 146.096 149.943 146.537C146.007 147.093 143.83 150.016 143.807 150.039L143.251 149.621C143.344 149.482 145.613 146.421 149.828 145.841C153.208 145.377 156.821 146.606 160.572 149.552L160.155 150.108Z" fill="#040F1F"/>
<path d="M123.522 153.843C123.522 153.843 117.456 157.345 108.656 155.397L123.522 153.843Z" fill="#BFCFDD"/>
<path d="M152.653 157.391C151.078 157.391 149.665 157.113 148.484 156.742C145.081 155.675 142.904 153.68 142.811 153.611L143.274 153.101C143.298 153.124 145.428 155.072 148.716 156.093C153.069 157.461 157.261 156.603 161.174 153.564L161.591 154.121C158.395 156.603 155.292 157.391 152.653 157.391Z" fill="#9FB1BF"/>
<path d="M117.595 184.782C117.595 184.782 120.698 189.792 125.607 191.509C130.516 193.225 140.426 190.743 144.293 190.813C148.16 190.882 149.897 183.739 149.897 183.739L129.219 184.782H117.595Z" fill="#9FB1BF"/>
<path d="M117.595 184.783C117.595 184.783 127.667 181.164 133.225 183.484C133.225 183.484 137.624 179.866 149.897 183.739C149.897 183.739 137.995 188.54 117.595 184.783Z" fill="#304D60"/>
<path d="M132.646 186.893C128.316 186.893 123.245 186.522 117.525 185.455L117.641 184.759C137.717 188.447 149.642 183.785 149.758 183.739L150.013 184.388C149.943 184.435 143.668 186.893 132.646 186.893Z" fill="#040F1F"/>
<path d="M123.87 171.238C123.87 171.238 127.482 168.64 130.933 171.238C134.383 173.835 137.231 171.957 138.69 170.078C140.148 168.199 143.089 170.31 143.946 171.284C144.803 172.258 137.393 180.028 133.92 179.935C130.446 179.843 122.249 174.16 123.87 171.238Z" fill="#9FB1BF"/>
<path d="M136.559 172.791C136.559 172.791 138.62 168.385 142.07 170.124C145.521 171.864 136.559 172.791 136.559 172.791Z" fill="#040F1F"/>
<path d="M130.191 172.792C130.191 172.792 128.895 168.571 125.63 170.542C122.365 172.513 130.191 172.792 130.191 172.792Z" fill="#040F1F"/>
<path d="M165.805 233.698C165.805 233.698 174.071 215.05 163.744 212.197C163.744 212.197 165.782 230.311 152.351 236.017C140.171 241.166 125.884 227.76 121.276 235.089C129.682 240.887 144.015 244.9 165.805 233.698Z" fill="#9FB1BF"/>
<path d="M141.491 162.285C141.491 162.285 145.081 163.375 145.081 169.985C145.104 170.009 148.762 163.12 141.491 162.285Z" fill="#BFCFDD"/>
<path d="M163.328 163.027C163.328 163.027 157.654 171.168 149.897 172.768C142.14 174.368 152.421 176.502 155.292 175.064C158.164 173.626 163.328 163.027 163.328 163.027Z" fill="#BFCFDD"/>
<path d="M147.604 160.058C147.604 160.058 162.934 159.154 164.462 157.739C165.99 156.324 159.599 167.921 152.977 169.313C146.354 170.704 147.604 160.058 147.604 160.058Z" fill="white"/>
<path d="M137.763 139.231C137.763 139.231 136.165 147.604 136.744 156.742C137.323 165.88 138.643 170.38 135.517 171.238C132.391 172.096 131.025 170.704 130.168 166.135C129.311 161.566 131.256 145.4 131.766 138.28C132.275 131.16 138.527 133.572 137.763 139.231Z" fill="white"/>
<path d="M108.68 162.586C108.68 162.586 118.428 162.842 120.072 162.285C121.717 161.728 117.896 167.411 114.376 167.596C110.856 167.782 103.655 162.54 108.68 162.586Z" fill="white"/>
<path d="M174.396 135.381C174.373 125.129 173.933 113.208 172.057 112.86L168.769 112.28C168.769 112.28 171.293 108.592 166.639 103.142C161.984 97.6913 153.069 88.5763 145.312 88.182C137.555 87.7878 122.434 87.9965 120.304 90.3158C120.304 90.3158 116.622 88.5763 110.023 92.0553C103.423 95.5575 91.4981 106.922 94.4852 113.138C95.2262 111.886 105.554 94.653 113.264 96.9028C121.253 99.2221 126.394 93.4006 126.394 93.4006C126.394 93.4006 148.091 101.356 142.14 106.806C140.681 108.152 140.588 109.636 141.306 111.12C151.541 112.535 152.768 118.078 161.614 117.104C161.614 117.104 162.007 133.618 168.398 134.963L172.728 133.989C173.215 134.546 173.77 135.009 174.396 135.381Z" fill="#1573FF"/>
<path d="M111.088 224.675L109.791 211.014L106.781 194.802C103.33 190.627 100.806 186.824 100.019 184.643C99.4866 183.159 98.8845 180.84 98.2825 177.894C97.2636 178.636 95.5501 179.564 93.4198 179.448C92.6093 179.402 91.8683 179.007 91.2431 178.288C89.1128 175.807 88.5802 169.962 89.0202 165.254C89.4138 161.056 91.1505 154.515 92.1462 150.99C92.1462 149.784 92.3083 126.544 91.5673 122.068C90.8495 117.8 93.3966 114.066 94.0218 113.231C91.1042 106.644 103.446 95.1634 109.768 91.8004C116.437 88.275 120.188 89.9681 120.35 90.0377L120.049 90.6639C118.822 90.0841 115.14 89.713 110.092 92.4034C103.145 96.0912 91.8683 107.363 94.7165 113.115L94.8091 113.324L94.6702 113.509C94.647 113.556 91.4747 117.522 92.2157 121.975C92.9798 126.614 92.8177 150.085 92.8177 151.083V151.129L92.7946 151.175C91.7989 154.678 90.0622 161.195 89.6917 165.37C89.2749 169.776 89.738 175.575 91.7294 177.871C92.2388 178.451 92.7946 178.752 93.4198 178.799C95.6659 178.915 97.4025 177.755 98.2362 177.036L98.6761 176.665L98.7919 177.245C99.4171 180.422 100.042 182.904 100.598 184.435C101.362 186.568 103.863 190.303 107.313 194.454L107.36 194.524L110.416 210.968L111.713 224.652L111.088 224.675ZM95.7817 161.172L95.4806 159.664L96.1521 159.502C96.2679 159.896 96.3605 160.29 96.43 160.708V160.731L96.4532 161.079L95.7817 161.172Z" fill="#040F1F"/>
<path d="M115.788 182.927C113.311 177.709 122.99 167.04 123.407 166.576L123.916 167.04C123.823 167.156 114.144 177.824 116.414 182.625L115.788 182.927Z" fill="#BFCFDD"/>
<path d="M149.92 182.927L149.295 182.626C150.221 180.677 149.225 177.361 146.423 173.093C144.27 169.8 141.792 167.086 141.769 167.063L142.279 166.599C142.719 167.017 152.398 177.709 149.92 182.927Z" fill="#BFCFDD"/>
<path d="M129.173 193.202C129.173 193.202 139.57 192.552 141.607 193.202C143.645 193.851 137.601 198.304 134.198 197.98C130.794 197.655 125.838 193.364 129.173 193.202Z" fill="#BFCFDD"/>
</g>
<defs>
<clipPath id="clip0_2_375">
<rect width="276" height="320" fill="white"/>
</clipPath>
</defs>
</svg>
